<svg width="84" height="84" viewBox="0 0 84 84" fill="none" xmlns="http://www.w3.org/2000/svg">
<path d="M54.6 78.4001C54.9713 78.4001 55.3274 78.2526 55.59 77.99C55.8525 77.7275 56 77.3714 56 77.0001C56 76.6288 55.8525 76.2727 55.59 76.0101C55.3274 75.7476 54.9713 75.6001 54.6 75.6001H43.4C43.0287 75.6001 42.6726 75.7476 42.41 76.0101C42.1475 76.2727 42 76.6288 42 77.0001C42 77.3714 42.1475 77.7275 42.41 77.99C42.6726 78.2526 43.0287 78.4001 43.4 78.4001H54.6Z" fill="#1BF39D"/>
<path d="M1.4 78.4001H12.6C12.9713 78.4001 13.3274 78.2526 13.5899 77.99C13.8525 77.7275 14 77.3714 14 77.0001C14 76.6288 13.8525 76.2727 13.5899 76.0101C13.3274 75.7476 12.9713 75.6001 12.6 75.6001H1.4C1.0287 75.6001 0.672601 75.7476 0.41005 76.0101C0.1475 76.2727 0 76.6288 0 77.0001C0 77.3714 0.1475 77.7275 0.41005 77.99C0.672601 78.2526 1.0287 78.4001 1.4 78.4001V78.4001Z" fill="#1BF39D"/>
<path d="M36.4 81.2C36.0287 81.2 35.6726 81.3474 35.41 81.61C35.1475 81.8726 35 82.2286 35 82.6C35 82.9713 35.1475 83.3274 35.41 83.5899C35.6726 83.8525 36.0287 84 36.4 84H42C42.3713 84 42.7274 83.8525 42.99 83.5899C43.2525 83.3274 43.4 82.9713 43.4 82.6C43.4 82.2286 43.2525 81.8726 42.99 81.61C42.7274 81.3474 42.3713 81.2 42 81.2H36.4Z" fill="#1BF39D"/>
<path d="M7 82.6C7 82.9713 7.1475 83.3274 7.41005 83.5899C7.6726 83.8525 8.0287 84 8.4 84H28C28.3713 84 28.7274 83.8525 28.99 83.5899C29.2525 83.3274 29.4 82.9713 29.4 82.6C29.4 82.2286 29.2525 81.8726 28.99 81.61C28.7274 81.3474 28.3713 81.2 28 81.2H8.4C8.0287 81.2 7.6726 81.3474 7.41005 81.61C7.1475 81.8726 7 82.2286 7 82.6Z" fill="#1BF39D"/>
<path d="M79.9458 32.588C77.6396 31.4349 74.6048 30.8 71.4 30.8C70.4452 30.7995 69.4912 30.8574 68.5435 30.9733L76.59 22.9266C76.8525 22.664 77 22.308 77 21.9367C77 21.5654 76.8525 21.2093 76.59 20.9468C75.1375 19.4943 72.8108 19.2038 70.0376 20.1282C67.5918 20.9435 64.9976 22.6404 62.7307 24.9065C62.3355 25.3017 61.9586 25.7063 61.6 26.1203V15.4C61.6 15.0287 61.4525 14.6726 61.1899 14.4101C60.9274 14.1475 60.5713 14 60.2 14C58.1462 14 56.2952 15.4399 54.988 18.0542C53.8349 20.3604 53.2 23.3952 53.2 26.6C53.1949 28.1711 53.3543 29.7383 53.6756 31.2762C52.1379 30.9554 50.5709 30.7958 49 30.8C45.7952 30.8 42.7604 31.4349 40.4542 32.588C37.8399 33.8952 36.4 35.7462 36.4 37.8C36.4 38.1713 36.5475 38.5274 36.81 38.79C37.0726 39.0525 37.4287 39.2 37.8 39.2H47.5186C44.5331 43.4581 43.9047 47.7479 46.1468 49.99C46.4093 50.2525 46.7654 50.4 47.1367 50.4C47.508 50.4 47.864 50.2525 48.1266 49.99L55.2603 42.8563C55.587 43.3703 56.0217 43.8069 56.5343 44.1358C57.0469 44.4648 57.6249 44.6781 58.2283 44.761C58.8317 44.8438 59.4459 44.7943 60.0281 44.6157C60.6104 44.4372 61.1468 44.1339 61.6 43.7271C61.663 43.7834 61.7279 43.8375 61.7941 43.8902C63.4356 47.9752 64.3678 52.6321 64.5148 57.4509C61.096 57.708 57.8032 58.9858 54.9227 61.1901C54.7477 61.3242 54.5748 61.4625 54.4035 61.6026C46.5391 61.6551 39.4585 64.8441 35.6729 70H1.39999V72.8H60.2C65.8089 72.8 70 75.0174 70 77C70 78.9826 65.8089 81.2 60.2 81.2C59.8287 81.2 59.4726 81.3475 59.21 81.61C58.9475 81.8726 58.8 82.2287 58.8 82.6C58.8 82.9713 58.9475 83.3274 59.21 83.5899C59.4726 83.8525 59.8287 84 60.2 84C63.4048 84 66.4396 83.3651 68.7458 82.212C71.3601 80.9048 72.8 79.0538 72.8 77C72.8 75.4306 71.9567 73.9804 70.3934 72.8H82.6C82.8296 72.8 83.0556 72.7435 83.2582 72.6356C83.4608 72.5277 83.6338 72.3716 83.7619 72.1811C83.8899 71.9905 83.9692 71.7714 83.9926 71.5431C84.0161 71.3147 83.9831 71.0841 83.8964 70.8715C82.2853 66.9191 79.789 63.5714 76.6773 61.1901C75.421 60.2254 74.0485 59.4224 72.5919 58.8H72.8C72.8 51.7683 71.3979 45.0431 68.7312 39.2H82.6C82.9713 39.2 83.3274 39.0525 83.5899 38.79C83.8525 38.5274 84 38.1713 84 37.8C84 35.7462 82.5601 33.8952 79.9458 32.588ZM58.8 17.454V30.227C58.3888 31.0254 58.0542 31.861 57.8007 32.7225C57.7159 32.6776 57.6333 32.6317 57.5458 32.588C57.316 32.473 57.0771 32.3648 56.8333 32.2604C56.2671 30.4274 55.986 28.5184 56 26.6C56 22.3046 57.3004 18.8407 58.8 17.454ZM54.783 39.3738L47.5942 46.5624C47.5137 44.7906 48.646 41.9949 51.0741 39.2H54.8408C54.8205 39.2574 54.8009 39.3151 54.783 39.3738ZM39.854 36.4C41.2407 34.9004 44.7046 33.6 49 33.6C53.2954 33.6 56.7593 34.9004 58.146 36.4H39.854ZM58.8 42C58.5231 42 58.2524 41.9179 58.0222 41.7641C57.792 41.6102 57.6125 41.3916 57.5066 41.1358C57.4006 40.8799 57.3729 40.5984 57.4269 40.3269C57.4809 40.0553 57.6142 39.8058 57.81 39.61C58.0058 39.4143 58.2553 39.2809 58.5269 39.2269C58.7984 39.1729 59.0799 39.2006 59.3357 39.3066C59.5916 39.4125 59.8102 39.592 59.9641 39.8222C60.1179 40.0524 60.2 40.3231 60.2 40.6C60.1996 40.9712 60.0519 41.327 59.7895 41.5895C59.527 41.8519 59.1712 41.9996 58.8 42ZM60.2875 34.4106C60.6175 32.179 62.2897 29.3065 64.7097 26.8865C67.7472 23.8488 71.1137 22.3176 73.157 22.3991L63.0733 32.4835C63.0003 32.5185 62.926 32.5521 62.8542 32.5885C61.9014 33.0457 61.0334 33.6619 60.2875 34.4106V34.4106ZM64.4 42C64.1231 42 63.8524 41.9179 63.6222 41.7641C63.392 41.6102 63.2125 41.3916 63.1066 41.1358C63.0006 40.8799 62.9729 40.5984 63.0269 40.3269C63.0809 40.0553 63.2142 39.8058 63.41 39.61C63.6058 39.4143 63.8553 39.2809 64.1269 39.2269C64.3984 39.1729 64.6799 39.2006 64.9357 39.3066C65.1916 39.4125 65.4102 39.592 65.5641 39.8222C65.7179 40.0524 65.8 40.3231 65.8 40.6C65.7996 40.9712 65.6519 41.327 65.3895 41.5895C65.127 41.8519 64.7712 41.9996 64.4 42ZM48.0797 70H39.3731C42.2663 67.1548 46.606 65.2061 51.4122 64.6009C50.0686 66.2461 48.9481 68.0615 48.0797 70V70ZM74.9758 63.4137C77.247 65.1857 79.1023 67.4339 80.4113 70H51.1887C52.4977 67.4339 54.353 65.1857 56.6242 63.4137C59.3717 61.3113 62.545 60.2 65.8 60.2C69.055 60.2 72.2283 61.3113 74.9758 63.4137ZM69.9883 57.9211C69.1112 57.7002 68.2181 57.5489 67.3172 57.4686C67.2125 53.1394 66.4634 48.85 65.0947 44.7415C65.9944 44.5903 66.8202 44.15 67.4471 43.4871C69.0689 48.1294 69.927 53.0041 69.9877 57.9211H69.9883ZM62.254 36.4C63.6407 34.9004 67.1046 33.6 71.4 33.6C75.6954 33.6 79.1593 34.9004 80.546 36.4H62.254Z" fill="#1BF39D"/>
<path d="M35 75.6001H21C20.6287 75.6001 20.2726 75.7476 20.0101 76.0101C19.7475 76.2727 19.6 76.6288 19.6 77.0001C19.6 77.3714 19.7475 77.7275 20.0101 77.99C20.2726 78.2526 20.6287 78.4001 21 78.4001H35C35.3713 78.4001 35.7274 78.2526 35.99 77.99C36.2525 77.7275 36.4 77.3714 36.4 77.0001C36.4 76.6288 36.2525 76.2727 35.99 76.0101C35.7274 75.7476 35.3713 75.6001 35 75.6001Z" fill="#1BF39D"/>
<path d="M22.4 8.3999C21.0155 8.3999 19.6622 8.81045 18.511 9.57962C17.3599 10.3488 16.4627 11.442 15.9328 12.7211C15.403 14.0002 15.2644 15.4077 15.5345 16.7655C15.8046 18.1234 16.4713 19.3707 17.4503 20.3496C18.4292 21.3286 19.6765 21.9953 21.0344 22.2654C22.3922 22.5355 23.7997 22.3969 25.0788 21.8671C26.3579 21.3372 27.4511 20.44 28.2203 19.2889C28.9895 18.1377 29.4 16.7844 29.4 15.3999C29.3979 13.544 28.6597 11.7648 27.3474 10.4525C26.0351 9.14015 24.2559 8.40199 22.4 8.3999ZM22.4 19.5999C21.5693 19.5999 20.7573 19.3536 20.0666 18.8921C19.3759 18.4306 18.8376 17.7746 18.5197 17.0072C18.2018 16.2397 18.1186 15.3952 18.2807 14.5805C18.4428 13.7658 18.8428 13.0174 19.4301 12.4301C20.0175 11.8427 20.7659 11.4427 21.5806 11.2806C22.3953 11.1185 23.2398 11.2017 24.0073 11.5196C24.7747 11.8375 25.4307 12.3758 25.8922 13.0665C26.3537 13.7572 26.6 14.5692 26.6 15.3999C26.5987 16.5134 26.1558 17.5809 25.3684 18.3683C24.581 19.1557 23.5135 19.5986 22.4 19.5999V19.5999Z" fill="#1BF39D"/>
<path d="M23.8 4.2V1.4C23.8 1.0287 23.6525 0.672601 23.39 0.41005C23.1274 0.1475 22.7713 0 22.4 0C22.0287 0 21.6726 0.1475 21.41 0.41005C21.1475 0.672601 21 1.0287 21 1.4V4.2C21 4.5713 21.1475 4.9274 21.41 5.18995C21.6726 5.4525 22.0287 5.6 22.4 5.6C22.7713 5.6 23.1274 5.4525 23.39 5.18995C23.6525 4.9274 23.8 4.5713 23.8 4.2Z" fill="#1BF39D"/>
<path d="M37.8 15.4C37.8 15.0287 37.6525 14.6726 37.39 14.4101C37.1274 14.1475 36.7713 14 36.4 14H33.6C33.2287 14 32.8726 14.1475 32.6101 14.4101C32.3475 14.6726 32.2 15.0287 32.2 15.4C32.2 15.7713 32.3475 16.1274 32.6101 16.3899C32.8726 16.6525 33.2287 16.8 33.6 16.8H36.4C36.7713 16.8 37.1274 16.6525 37.39 16.3899C37.6525 16.1274 37.8 15.7713 37.8 15.4Z" fill="#1BF39D"/>
<path d="M23.8 29.4V26.6C23.8 26.2286 23.6525 25.8726 23.39 25.61C23.1274 25.3474 22.7713 25.2 22.4 25.2C22.0287 25.2 21.6726 25.3474 21.41 25.61C21.1475 25.8726 21 26.2286 21 26.6V29.4C21 29.7713 21.1475 30.1274 21.41 30.3899C21.6726 30.6525 22.0287 30.8 22.4 30.8C22.7713 30.8 23.1274 30.6525 23.39 30.3899C23.6525 30.1274 23.8 29.7713 23.8 29.4Z" fill="#1BF39D"/>
<path d="M7 15.4C7 15.7713 7.1475 16.1274 7.41005 16.3899C7.6726 16.6525 8.0287 16.8 8.4 16.8H11.2C11.5713 16.8 11.9274 16.6525 12.1899 16.3899C12.4525 16.1274 12.6 15.7713 12.6 15.4C12.6 15.0287 12.4525 14.6726 12.1899 14.4101C11.9274 14.1475 11.5713 14 11.2 14H8.4C8.0287 14 7.6726 14.1475 7.41005 14.4101C7.1475 14.6726 7 15.0287 7 15.4Z" fill="#1BF39D"/>
<path d="M15.47 6.49038L13.4904 4.51061C13.2269 4.25291 12.8724 4.10953 12.5038 4.11159C12.1352 4.11366 11.7823 4.26099 11.5217 4.52162C11.261 4.78225 11.1137 5.13516 11.1116 5.50374C11.1096 5.87232 11.2529 6.22685 11.5106 6.49038L13.4904 8.46998C13.6196 8.6037 13.774 8.71035 13.9448 8.78372C14.1157 8.8571 14.2994 8.89572 14.4852 8.89733C14.6711 8.89895 14.8555 8.86353 15.0275 8.79313C15.1996 8.72274 15.3559 8.61878 15.4874 8.48733C15.6188 8.35588 15.7228 8.19957 15.7932 8.02752C15.8636 7.85546 15.899 7.67111 15.8974 7.48522C15.8957 7.29933 15.8571 7.11562 15.7838 6.94482C15.7104 6.77401 15.6037 6.61953 15.47 6.49038Z" fill="#1BF39D"/>
<path d="M31.3096 8.47009L33.2894 6.49014C33.5471 6.2266 33.6904 5.87208 33.6884 5.50349C33.6863 5.13491 33.539 4.78201 33.2783 4.52138C33.0177 4.26075 32.6648 4.11341 32.2962 4.11135C31.9276 4.10929 31.5731 4.25266 31.3096 4.51036L29.33 6.49049C29.075 6.75453 28.9338 7.10817 28.937 7.47525C28.9402 7.84232 29.0875 8.19346 29.347 8.45303C29.6066 8.7126 29.9577 8.85984 30.3248 8.86303C30.6919 8.86622 31.0455 8.72511 31.3096 8.47009V8.47009Z" fill="#1BF39D"/>
<path d="M31.3096 26.2894C31.5731 26.5471 31.9277 26.6904 32.2962 26.6884C32.6648 26.6863 33.0177 26.539 33.2784 26.2784C33.539 26.0177 33.6863 25.6648 33.6884 25.2962C33.6904 24.9277 33.5471 24.5731 33.2894 24.3096L31.3096 22.33C31.1804 22.1963 31.026 22.0896 30.8552 22.0163C30.6844 21.9429 30.5006 21.9043 30.3148 21.9026C30.1289 21.901 29.9445 21.9365 29.7725 22.0068C29.6004 22.0772 29.4441 22.1812 29.3126 22.3126C29.1812 22.4441 29.0772 22.6004 29.0068 22.7725C28.9365 22.9445 28.901 23.1289 28.9026 23.3148C28.9043 23.5006 28.9429 23.6844 29.0163 23.8552C29.0896 24.026 29.1963 24.1804 29.33 24.3096L31.3096 26.2894Z" fill="#1BF39D"/>
<path d="M11.5106 24.3096C11.3782 24.4391 11.2728 24.5935 11.2005 24.764C11.1282 24.9344 11.0905 25.1176 11.0894 25.3027C11.0884 25.4879 11.1241 25.6714 11.1945 25.8427C11.2649 26.014 11.3685 26.1696 11.4995 26.3005C11.6304 26.4314 11.786 26.5351 11.9573 26.6055C12.1286 26.6759 12.3121 26.7116 12.4973 26.7105C12.6824 26.7095 12.8655 26.6717 13.036 26.5994C13.2065 26.5272 13.3609 26.4218 13.4904 26.2894L15.47 24.3096C15.6037 24.1804 15.7104 24.026 15.7837 23.8552C15.8571 23.6844 15.8957 23.5006 15.8973 23.3148C15.8989 23.1289 15.8635 22.9445 15.7931 22.7725C15.7227 22.6004 15.6188 22.4441 15.4873 22.3126C15.3559 22.1812 15.1996 22.0772 15.0275 22.0068C14.8555 21.9365 14.6711 21.901 14.4852 21.9026C14.2993 21.9043 14.1156 21.9429 13.9448 22.0163C13.774 22.0896 13.6195 22.1963 13.4904 22.33L11.5106 24.3096Z" fill="#1BF39D"/>
<path d="M18.2 44.8001C18.5712 44.8005 18.927 44.9481 19.1895 45.2106C19.4519 45.473 19.5996 45.8289 19.6 46.2001C19.6 46.5714 19.7475 46.9275 20.0101 47.19C20.2726 47.4526 20.6287 47.6001 21 47.6001C21.3713 47.6001 21.7274 47.4526 21.99 47.19C22.2525 46.9275 22.4 46.5714 22.4 46.2001C22.4 45.8288 22.5475 45.4727 22.81 45.2101C23.0726 44.9476 23.4287 44.8001 23.8 44.8001C24.1713 44.8001 24.5274 44.9476 24.79 45.2101C25.0525 45.4727 25.2 45.8288 25.2 46.2001C25.2 46.5714 25.3475 46.9275 25.61 47.19C25.8726 47.4526 26.2287 47.6001 26.6 47.6001C26.9713 47.6001 27.3274 47.4526 27.59 47.19C27.8525 46.9275 28 46.5714 28 46.2001C28.0004 45.3891 27.7659 44.5954 27.3249 43.9148C26.8838 43.2343 26.2551 42.6961 25.5147 42.3652C24.7743 42.0344 23.9539 41.9251 23.1528 42.0505C22.3516 42.176 21.6038 42.5308 21 43.0721C20.3962 42.5308 19.6484 42.176 18.8472 42.0505C18.0461 41.9251 17.2257 42.0344 16.4853 42.3652C15.7449 42.6961 15.1162 43.2343 14.6751 43.9148C14.2341 44.5954 13.9996 45.3891 14 46.2001C14 46.5714 14.1475 46.9275 14.4101 47.19C14.6726 47.4526 15.0287 47.6001 15.4 47.6001C15.7713 47.6001 16.1274 47.4526 16.3899 47.19C16.6525 46.9275 16.8 46.5714 16.8 46.2001C16.8004 45.8289 16.9481 45.473 17.2105 45.2106C17.473 44.9481 17.8288 44.8005 18.2 44.8001V44.8001Z" fill="#1BF39D"/>
<path d="M2.79999 54.6C2.79999 54.9713 2.94749 55.3274 3.21004 55.5899C3.47259 55.8525 3.82869 56 4.19999 56C4.57129 56 4.92739 55.8525 5.18994 55.5899C5.45249 55.3274 5.59999 54.9713 5.59999 54.6C5.59999 54.2287 5.74749 53.8726 6.01004 53.61C6.27259 53.3475 6.62869 53.2 6.99999 53.2C7.37129 53.2 7.72739 53.3475 7.98994 53.61C8.25249 53.8726 8.39999 54.2287 8.39999 54.6C8.39999 54.9713 8.54749 55.3274 8.81004 55.5899C9.07259 55.8525 9.42869 56 9.79999 56C10.1713 56 10.5274 55.8525 10.7899 55.5899C11.0525 55.3274 11.2 54.9713 11.2 54.6C11.2 54.2287 11.3475 53.8726 11.61 53.61C11.8726 53.3475 12.2287 53.2 12.6 53.2C12.9713 53.2 13.3274 53.3475 13.5899 53.61C13.8525 53.8726 14 54.2287 14 54.6C14 54.9713 14.1475 55.3274 14.41 55.5899C14.6726 55.8525 15.0287 56 15.4 56C15.7713 56 16.1274 55.8525 16.3899 55.5899C16.6525 55.3274 16.8 54.9713 16.8 54.6C16.8004 53.789 16.5659 52.9953 16.1249 52.3147C15.6838 51.6342 15.0551 51.096 14.3147 50.7651C13.5743 50.4343 12.7539 50.325 11.9527 50.4504C11.1515 50.5759 10.4038 50.9307 9.79999 51.472C9.19614 50.9307 8.44843 50.5759 7.64724 50.4504C6.84604 50.325 6.02566 50.4343 5.28526 50.7651C4.54486 51.096 3.91614 51.6342 3.4751 52.3147C3.03406 52.9953 2.79957 53.789 2.79999 54.6V54.6Z" fill="#1BF39D"/>
</svg>
