<svg width="84" height="84" viewBox="0 0 84 84" fill="none" xmlns="http://www.w3.org/2000/svg">
<path d="M50.4 53.2H53.2C53.5713 53.2 53.9274 53.3475 54.19 53.61C54.4525 53.8726 54.6 54.2287 54.6 54.6C54.6 54.9713 54.4525 55.3274 54.19 55.5899C53.9274 55.8525 53.5713 56 53.2 56H50.4C50.0287 56 49.6726 55.8525 49.4101 55.5899C49.1475 55.3274 49 54.9713 49 54.6C49 54.2287 48.8525 53.8726 48.59 53.61C48.3274 53.3475 47.9713 53.2 47.6 53.2C47.2287 53.2 46.8726 53.3475 46.6101 53.61C46.3475 53.8726 46.2 54.2287 46.2 54.6C46.2 55.7139 46.6425 56.7822 47.4302 57.5698C48.2178 58.3575 49.2861 58.8 50.4 58.8V60.2C50.4 60.5713 50.5475 60.9274 50.8101 61.1899C51.0726 61.4525 51.4287 61.6 51.8 61.6C52.1713 61.6 52.5274 61.4525 52.79 61.1899C53.0525 60.9274 53.2 60.5713 53.2 60.2V58.8C54.3139 58.8 55.3822 58.3575 56.1699 57.5698C56.9575 56.7822 57.4 55.7139 57.4 54.6C57.4 53.4861 56.9575 52.4178 56.1699 51.6302C55.3822 50.8425 54.3139 50.4 53.2 50.4H50.4C50.0287 50.4 49.6726 50.2525 49.4101 49.9899C49.1475 49.7274 49 49.3713 49 49C49 48.6287 49.1475 48.2726 49.4101 48.01C49.6726 47.7475 50.0287 47.6 50.4 47.6H53.2C53.5713 47.6 53.9274 47.7475 54.19 48.01C54.4525 48.2726 54.6 48.6287 54.6 49C54.6 49.3713 54.7475 49.7274 55.0101 49.9899C55.2726 50.2525 55.6287 50.4 56 50.4C56.3713 50.4 56.7274 50.2525 56.99 49.9899C57.2525 49.7274 57.4 49.3713 57.4 49C57.4 47.8861 56.9575 46.8178 56.1699 46.0302C55.3822 45.2425 54.3139 44.8 53.2 44.8V43.4C53.2 43.0287 53.0525 42.6726 52.79 42.41C52.5274 42.1475 52.1713 42 51.8 42C51.4287 42 51.0726 42.1475 50.8101 42.41C50.5475 42.6726 50.4 43.0287 50.4 43.4V44.8C49.2861 44.8 48.2178 45.2425 47.4302 46.0302C46.6425 46.8178 46.2 47.8861 46.2 49C46.2 50.1139 46.6425 51.1822 47.4302 51.9698C48.2178 52.7575 49.2861 53.2 50.4 53.2Z" fill="#1BF39D"/>
<path d="M82.6 58.8C82.9713 58.8 83.3274 58.6525 83.5899 58.3899C83.8525 58.1274 84 57.7713 84 57.4V4.2C83.9967 3.08711 83.5531 2.02076 82.7662 1.23382C81.9792 0.44689 80.9129 0.00332373 79.8 0H23.8C22.6871 0.00332373 21.6208 0.44689 20.8338 1.23382C20.0469 2.02076 19.6033 3.08711 19.6 4.2V25.2H8.4C7.28711 25.2033 6.22076 25.6469 5.43382 26.4338C4.64689 27.2208 4.20332 28.2871 4.2 29.4V70H1.4C1.0287 70 0.672601 70.1475 0.41005 70.41C0.1475 70.6726 0 71.0287 0 71.4V77C0 78.8565 0.737498 80.637 2.05025 81.9497C3.36301 83.2625 5.14348 84 7 84H77C78.8565 84 80.637 83.2625 81.9497 81.9497C83.2625 80.637 84 78.8565 84 77V71.4C84 71.0287 83.8525 70.6726 83.5899 70.41C83.3274 70.1475 82.9713 70 82.6 70H79.8V58.8H82.6ZM22.4 4.2C22.4 3.8287 22.5475 3.4726 22.81 3.21005C23.0726 2.9475 23.4287 2.8 23.8 2.8H79.8C80.1713 2.8 80.5274 2.9475 80.7899 3.21005C81.0525 3.4726 81.2 3.8287 81.2 4.2V8.4H22.4V4.2ZM21 58.8H36.4V64.4H12.6V33.6H19.6V57.4C19.6 57.7713 19.7475 58.1274 20.01 58.3899C20.2726 58.6525 20.6287 58.8 21 58.8ZM7 29.4C7 29.0287 7.1475 28.6726 7.41005 28.41C7.6726 28.1475 8.0287 28 8.4 28H19.6V30.8H11.2C10.8287 30.8 10.4726 30.9475 10.2101 31.21C9.9475 31.4726 9.8 31.8287 9.8 32.2V65.8C9.8 66.1713 9.9475 66.5274 10.2101 66.7899C10.4726 67.0525 10.8287 67.2 11.2 67.2H36.4V68.6C36.4007 68.8639 36.4761 69.1222 36.6172 69.3451C36.7584 69.568 36.9598 69.7465 37.198 69.86C37.3841 69.9555 37.5909 70.0036 37.8 70C38.1166 70.0026 38.4239 69.8936 38.668 69.692L41.3 67.592L43.946 69.692C44.1914 69.8912 44.4979 69.9999 44.814 69.9999C45.1301 69.9999 45.4366 69.8912 45.682 69.692L48.314 67.592L50.946 69.692C51.1934 69.8877 51.4986 69.996 51.814 70C52.1337 69.9962 52.4434 69.888 52.696 69.692L55.314 67.592L57.932 69.692C58.1825 69.8918 58.4936 70.0004 58.814 70C59.1306 70.0026 59.4379 69.8936 59.682 69.692L62.3 67.592L64.932 69.692C65.1794 69.8877 65.4846 69.996 65.8 70C66.009 70.0021 66.2154 69.9541 66.402 69.86C66.6402 69.7465 66.8416 69.568 66.9827 69.3451C67.1239 69.1222 67.1993 68.8639 67.2 68.6V67.2H72.8C73.1713 67.2 73.5274 67.0525 73.7899 66.7899C74.0525 66.5274 74.2 66.1713 74.2 65.8V58.8H77V70H7V29.4ZM33.068 25.494C32.8997 25.3631 32.7038 25.2724 32.4952 25.2287C32.2865 25.185 32.0706 25.1896 31.864 25.242L28 26.208V23.492L32.34 22.4H33.782C34.0952 23.5984 34.7969 24.6591 35.7773 25.4162C36.7576 26.1733 37.9613 26.5839 39.2 26.5839C40.4387 26.5839 41.6424 26.1733 42.6227 25.4162C43.6031 24.6591 44.3048 23.5984 44.618 22.4H46.06L50.4 23.492V26.208L46.536 25.242C46.3292 25.1925 46.1139 25.1895 45.9057 25.233C45.6976 25.2766 45.5016 25.3657 45.332 25.494C45.1652 25.6258 45.0305 25.794 44.9383 25.9856C44.8462 26.1772 44.7989 26.3873 44.8 26.6V33.6H40.6C39.4871 33.6033 38.4208 34.0469 37.6338 34.8338C36.8469 35.6208 36.4033 36.6871 36.4 37.8V39.2H33.6V26.6C33.6011 26.3873 33.5538 26.1772 33.4617 25.9856C33.3695 25.794 33.2349 25.6258 33.068 25.494ZM65.184 36.4C64.6748 37.2455 64.4039 38.213 64.4 39.2V65.688L63.182 64.708C62.933 64.5109 62.6246 64.4036 62.307 64.4036C61.9894 64.4036 61.681 64.5109 61.432 64.708L58.814 66.808L56.196 64.708C55.947 64.5109 55.6386 64.4036 55.321 64.4036C55.0034 64.4036 54.695 64.5109 54.446 64.708L51.814 66.808L49.182 64.708C48.9357 64.5108 48.6295 64.4033 48.314 64.4033C47.9985 64.4033 47.6923 64.5108 47.446 64.708L44.814 66.808L42.182 64.708C41.933 64.5109 41.6246 64.4036 41.307 64.4036C40.9894 64.4036 40.681 64.5109 40.432 64.708L39.2 65.688V37.8C39.2 37.4287 39.3475 37.0726 39.61 36.81C39.8726 36.5475 40.2287 36.4 40.6 36.4H65.184ZM67.2 64.4V58.8H71.4V64.4H67.2ZM47.6 72.8V74.2C47.6 74.5713 47.4525 74.9274 47.1899 75.1899C46.9274 75.4525 46.5713 75.6 46.2 75.6H37.8C37.4287 75.6 37.0726 75.4525 36.81 75.1899C36.5475 74.9274 36.4 74.5713 36.4 74.2V72.8H47.6ZM81.2 72.8V77C81.1967 78.1129 80.7531 79.1792 79.9662 79.9662C79.1792 80.7531 78.1129 81.1967 77 81.2H7C5.88711 81.1967 4.82076 80.7531 4.03382 79.9662C3.24689 79.1792 2.80332 78.1129 2.8 77V72.8H33.6V74.2C33.6033 75.3129 34.0469 76.3792 34.8338 77.1662C35.6208 77.9531 36.6871 78.3967 37.8 78.4H46.2C47.3129 78.3967 48.3792 77.9531 49.1662 77.1662C49.9531 76.3792 50.3967 75.3129 50.4 74.2V72.8H81.2ZM67.2 56V47.6H74.2C74.5713 47.6 74.9274 47.4525 75.1899 47.1899C75.4525 46.9274 75.6 46.5713 75.6 46.2V39.2C75.6 37.7148 75.01 36.2904 73.9598 35.2402C72.9096 34.19 71.4852 33.6 70 33.6H47.6V28.392L51.464 29.358C51.6708 29.4082 51.8862 29.4116 52.0945 29.368C52.3027 29.3244 52.4987 29.2349 52.668 29.106C52.8348 28.9742 52.9695 28.806 53.0617 28.6144C53.1538 28.4228 53.2011 28.2126 53.2 28V22.4C53.1998 22.0873 53.0949 21.7838 52.902 21.5376C52.7092 21.2915 52.4395 21.117 52.136 21.042L46.564 19.642C46.4541 19.6143 46.3413 19.6002 46.228 19.6H43.4C43.0287 19.6 42.6726 19.7475 42.41 20.01C42.1475 20.2726 42 20.6287 42 21C42 21.7426 41.705 22.4548 41.1799 22.9799C40.6548 23.505 39.9426 23.8 39.2 23.8C38.4574 23.8 37.7452 23.505 37.2201 22.9799C36.695 22.4548 36.4 21.7426 36.4 21C36.4 20.6287 36.2525 20.2726 35.9899 20.01C35.7274 19.7475 35.3713 19.6 35 19.6H32.172C32.0587 19.6002 31.9459 19.6143 31.836 19.642L26.264 21.042C25.9605 21.117 25.6908 21.2915 25.498 21.5376C25.3051 21.7838 25.2002 22.0873 25.2 22.4V28C25.1989 28.2126 25.2462 28.4228 25.3383 28.6144C25.4305 28.806 25.5651 28.9742 25.732 29.106C25.9013 29.2349 26.0973 29.3244 26.3055 29.368C26.5138 29.4116 26.7292 29.4082 26.936 29.358L30.8 28.392V40.6C30.8 40.9713 30.9475 41.3274 31.21 41.5899C31.4726 41.8525 31.8287 42 32.2 42H36.4V56H22.4V11.2H81.2V56H67.2ZM67.2 44.8V39.2C67.2 38.4574 67.495 37.7452 68.0201 37.2201C68.5452 36.695 69.2574 36.4 70 36.4C70.7426 36.4 71.4548 36.695 71.9799 37.2201C72.505 37.7452 72.8 38.4574 72.8 39.2V44.8H67.2Z" fill="#1BF39D"/>
<path d="M57.4 25.1999H74.2C74.5713 25.1999 74.9274 25.0524 75.19 24.7899C75.4525 24.5273 75.6 24.1712 75.6 23.7999C75.6 23.4286 75.4525 23.0725 75.19 22.81C74.9274 22.5474 74.5713 22.3999 74.2 22.3999H57.4C57.0287 22.3999 56.6726 22.5474 56.4101 22.81C56.1475 23.0725 56 23.4286 56 23.7999C56 24.1712 56.1475 24.5273 56.4101 24.7899C56.6726 25.0524 57.0287 25.1999 57.4 25.1999Z" fill="#1BF39D"/>
<path d="M57.4 19.6H77C77.3713 19.6 77.7274 19.4525 77.99 19.19C78.2525 18.9274 78.4 18.5714 78.4 18.2C78.4 17.8287 78.2525 17.4727 77.99 17.2101C77.7274 16.9475 77.3713 16.8 77 16.8H57.4C57.0287 16.8 56.6726 16.9475 56.4101 17.2101C56.1475 17.4727 56 17.8287 56 18.2C56 18.5714 56.1475 18.9274 56.4101 19.19C56.6726 19.4525 57.0287 19.6 57.4 19.6Z" fill="#1BF39D"/>
<path d="M57.4 30.8H70C70.3713 30.8 70.7274 30.6525 70.99 30.39C71.2525 30.1274 71.4 29.7713 71.4 29.4C71.4 29.0287 71.2525 28.6726 70.99 28.41C70.7274 28.1475 70.3713 28 70 28H57.4C57.0287 28 56.6726 28.1475 56.4101 28.41C56.1475 28.6726 56 29.0287 56 29.4C56 29.7713 56.1475 30.1274 56.4101 30.39C56.6726 30.6525 57.0287 30.8 57.4 30.8Z" fill="#1BF39D"/>
<path d="M28 4.19995H26.6C26.2287 4.19995 25.8726 4.34745 25.6101 4.61C25.3475 4.87255 25.2 5.22865 25.2 5.59995C25.2 5.97125 25.3475 6.32735 25.6101 6.5899C25.8726 6.85245 26.2287 6.99995 26.6 6.99995H28C28.3713 6.99995 28.7274 6.85245 28.99 6.5899C29.2525 6.32735 29.4 5.97125 29.4 5.59995C29.4 5.22865 29.2525 4.87255 28.99 4.61C28.7274 4.34745 28.3713 4.19995 28 4.19995Z" fill="#1BF39D"/>
<path d="M35 4.19995H33.6C33.2287 4.19995 32.8726 4.34745 32.61 4.61C32.3475 4.87255 32.2 5.22865 32.2 5.59995C32.2 5.97125 32.3475 6.32735 32.61 6.5899C32.8726 6.85245 33.2287 6.99995 33.6 6.99995H35C35.3713 6.99995 35.7274 6.85245 35.9899 6.5899C36.2525 6.32735 36.4 5.97125 36.4 5.59995C36.4 5.22865 36.2525 4.87255 35.9899 4.61C35.7274 4.34745 35.3713 4.19995 35 4.19995Z" fill="#1BF39D"/>
<path d="M42 4.19995H40.6C40.2287 4.19995 39.8726 4.34745 39.6101 4.61C39.3475 4.87255 39.2 5.22865 39.2 5.59995C39.2 5.97125 39.3475 6.32735 39.6101 6.5899C39.8726 6.85245 40.2287 6.99995 40.6 6.99995H42C42.3713 6.99995 42.7274 6.85245 42.99 6.5899C43.2525 6.32735 43.4 5.97125 43.4 5.59995C43.4 5.22865 43.2525 4.87255 42.99 4.61C42.7274 4.34745 42.3713 4.19995 42 4.19995Z" fill="#1BF39D"/>
</svg>
