<svg width="49" height="84" viewBox="0 0 49 84" fill="none" xmlns="http://www.w3.org/2000/svg">
<path d="M34.7409 8.61681C29.0425 2.91842 19.7706 2.91842 14.0722 8.61681C8.37401 14.3152 8.37401 23.5869 14.0722 29.2853C16.9215 32.1344 20.664 33.559 24.4066 33.559C28.1492 33.559 31.8916 32.1344 34.7409 29.2853C40.4391 23.5869 40.4391 14.3152 34.7409 8.61681ZM33.0492 27.5938C28.2835 32.3592 20.5293 32.3593 15.7637 27.5938C10.9982 22.8283 10.9982 15.0738 15.7637 10.3083C18.1469 7.92529 21.2761 6.73403 24.4064 6.73403C27.5359 6.73403 30.6667 7.92578 33.0491 10.3083C37.8149 15.0738 37.8149 22.8281 33.0492 27.5938Z" fill="#1BF39D"/>
<path d="M30.2479 51.6545C30.6593 51.8327 31.078 51.9575 31.4475 52.0658C31.5648 52.1001 31.6798 52.1338 31.7904 52.1682C31.8365 52.1825 31.8833 52.194 31.9305 52.2027C32.8153 52.3641 33.675 52.4448 34.5084 52.4448C36.9664 52.4448 39.1955 51.7438 41.1594 50.3487C41.3205 50.2344 41.4776 50.1155 41.6322 49.9939C41.8563 49.9023 42.0509 49.744 42.1859 49.5329C43.5393 48.3393 44.6268 46.8801 45.5008 45.3509C45.622 45.23 45.7205 45.0827 45.7823 44.9109C45.7996 44.863 45.8125 44.8147 45.8233 44.7663C47.7089 41.2162 48.49 37.4301 48.7596 35.7754C48.8766 35.3985 48.8058 34.972 48.5325 34.6481C48.2653 34.332 47.8695 34.1889 47.4869 34.2309C44.8372 34.1915 36.5574 34.4709 31.7874 39.1669C29.4886 41.43 28.3318 44.3782 28.3492 47.9298C28.3495 47.978 28.3526 48.0261 28.3587 48.0739C28.3731 48.189 28.3863 48.3083 28.3995 48.4299C28.4479 48.8699 28.5039 49.3775 28.6435 49.8785L26.2799 51.8747L25.6028 52.4465V37.8596C29.5314 37.6094 33.3178 36.1381 36.3748 33.6455C39.6933 30.9398 42.0194 27.1583 42.9245 22.9977C43.065 22.3522 42.6556 21.715 42.0102 21.5746C41.3651 21.4346 40.7277 21.8435 40.5873 22.4891C39.7967 26.1229 37.7638 29.4266 34.8633 31.7916C31.9225 34.1894 28.2091 35.5099 24.4069 35.5099C15.2763 35.5099 7.84805 28.0817 7.84805 18.9511C7.84805 9.82047 15.2763 2.39204 24.4069 2.39204C28.2091 2.39204 31.9226 3.71258 34.8633 6.11052C37.7639 8.47565 39.7967 11.7794 40.5873 15.413C40.7276 16.0585 41.3636 16.4676 42.0102 16.3275C42.6556 16.1871 43.065 15.55 42.9245 14.9046C42.0194 10.744 39.6933 6.96233 36.375 4.25645C33.0082 1.51168 28.7579 0 24.4066 0C13.9569 0 5.45552 8.50141 5.45552 18.9511C5.45552 28.9989 13.3163 37.2441 23.2107 37.8632H23.2106V52.4465L20.1262 49.8416C20.2486 49.3731 20.3039 48.9027 20.3505 48.4914C20.3642 48.37 20.3777 48.2507 20.3926 48.1357C20.3989 48.0881 20.4021 48.0399 20.4026 47.9918C20.4331 44.4404 19.2873 41.4879 16.997 39.2163C16.8028 39.0235 16.6006 38.8409 16.3952 38.6626C16.3527 38.6202 16.3065 38.5815 16.2577 38.5457C14.7303 37.258 12.9276 36.3468 11.0937 35.7078C11.053 35.6915 11.0112 35.6778 10.9682 35.6659C6.93488 34.288 2.78999 34.1964 1.17463 34.2235C1.16364 34.2237 1.15297 34.2253 1.14215 34.2258C1.11721 34.227 1.09243 34.2284 1.0675 34.2311C1.05109 34.2329 1.03485 34.2352 1.01844 34.2376C0.993998 34.2412 0.969716 34.2457 0.945599 34.2507C0.930177 34.254 0.914756 34.2575 0.899498 34.2614C0.874232 34.2678 0.849294 34.2752 0.824521 34.2832C0.811068 34.2877 0.797614 34.2919 0.784161 34.2967C0.757419 34.3064 0.731332 34.3175 0.705246 34.3292C0.694418 34.3341 0.683426 34.3385 0.672598 34.3438C0.644544 34.3574 0.617145 34.3726 0.589911 34.3886C0.581708 34.3933 0.57334 34.3976 0.565301 34.4027C0.536754 34.4204 0.509027 34.4397 0.481793 34.4601C0.475723 34.4647 0.46916 34.4686 0.46309 34.4734C0.435363 34.4949 0.408622 34.5182 0.382372 34.5424C0.377614 34.5469 0.372363 34.5508 0.367605 34.5554C0.337418 34.5844 0.308215 34.6151 0.280652 34.6478C0.25309 34.6804 0.227823 34.7142 0.204362 34.7487C0.199933 34.7552 0.196324 34.7621 0.192058 34.7687C0.173355 34.7974 0.155472 34.8264 0.139558 34.8563C0.135292 34.8642 0.131847 34.8725 0.12791 34.8806C0.113144 34.9096 0.0991986 34.9388 0.087058 34.9687C0.0831205 34.9784 0.080003 34.9884 0.0762295 34.9982C0.0655655 35.0268 0.0553933 35.0553 0.0470261 35.0843C0.0434167 35.0965 0.0407919 35.1086 0.0376747 35.1209C0.030784 35.148 0.0243857 35.1749 0.0192997 35.2023C0.0166747 35.2166 0.0147059 35.231 0.0125731 35.2455C0.00879963 35.2709 0.0056823 35.2963 0.00371355 35.3219C0.00240104 35.3378 0.00158101 35.3537 0.000924758 35.3698C-5.9619e-05 35.3944 -0.000223321 35.419 0.000268867 35.4436C0.000596993 35.46 0.00108944 35.4765 0.00207382 35.4929C0.00355038 35.518 0.00633915 35.5431 0.00945635 35.568C0.0107688 35.5787 0.0109325 35.5893 0.0125731 35.5998C0.257027 37.2027 1.04584 41.2987 3.09695 45.0562C3.10516 45.072 3.1132 45.0879 3.12206 45.1032C4.06148 46.8142 5.26603 48.4496 6.79952 49.747C6.83217 49.7786 6.86761 49.8067 6.90354 49.8342C7.12437 50.017 7.3493 50.1954 7.58391 50.3632C9.55578 51.7746 11.798 52.484 14.2752 52.484C15.0934 52.484 15.9378 52.4066 16.806 52.2514C16.8535 52.243 16.9002 52.2315 16.9462 52.2176C17.0571 52.1836 17.1722 52.1503 17.2895 52.1165C17.6872 52.0017 18.1417 51.8683 18.5833 51.6693L23.2111 55.5774V56.5518H4.11053C3.02313 56.5518 2.13834 57.4364 2.13834 58.5238V62.7002C2.13834 63.7876 3.02313 64.6723 4.11053 64.6723H7.41968L8.62948 70.2289C8.76992 70.8743 9.40632 71.2843 10.0526 71.1431C10.698 71.0026 11.1073 70.3654 10.9667 69.72L9.86783 64.6723H38.9453L35.2582 81.608H13.555L12.6139 77.2849C12.4735 76.6395 11.8376 76.2305 11.1908 76.3706C10.5454 76.5112 10.1362 77.1483 10.2767 77.7937L11.256 82.2919C11.4712 83.2817 12.3627 84 13.3758 84H35.4375C36.4506 84 37.3421 83.2816 37.5574 82.2919L41.3935 64.6721H44.7026C45.79 64.6721 46.6748 63.7875 46.6748 62.7001V58.5237C46.6747 57.4366 45.7899 56.5518 44.7026 56.5518H25.6026V55.5774L30.2479 51.6545ZM32.4281 49.8615C32.4143 49.8574 32.3997 49.8531 32.3859 49.849L34.7555 47.8479L38.449 49.1772C36.6763 50.0251 34.6585 50.2569 32.4281 49.8615ZM44.0269 43.0078L41.5448 42.1146L45.6662 38.6342C45.2921 39.9562 44.762 41.4954 44.0269 43.0078ZM44.1648 36.7711L40.0014 40.2869L39.5245 37.6242C41.1608 37.1599 42.7882 36.9068 44.1648 36.7711ZM42.8323 45.1204C42.2624 45.9858 41.61 46.7989 40.8622 47.5034L36.8665 46.0654L39.4338 43.8973L42.8323 45.1204ZM37.2383 38.4289L37.8904 42.0696L35.323 44.2377L34.5542 39.9445C35.3771 39.3347 36.2892 38.8368 37.2383 38.4289ZM32.4926 42.004L33.212 46.0206L30.768 48.0847C30.7591 48.0053 30.7506 47.9257 30.7412 47.8491C30.7419 45.5665 31.331 43.6077 32.4926 42.004ZM11.568 38.4668C12.5169 38.8801 13.4283 39.3836 14.2491 39.9995L13.4902 44.2377L10.9228 42.0696L11.568 38.4668ZM9.28393 37.6505L8.81175 40.2869L4.65621 36.7776C6.03155 36.9196 7.65396 37.1799 9.28393 37.6505ZM3.11287 38.6051L7.26842 42.1144L4.74825 43.0214C4.01144 41.4931 3.48299 39.9373 3.11287 38.6051ZM5.93541 45.1366L9.37941 43.8971L11.9467 46.0652L7.89546 47.5233C7.15078 46.8171 6.50175 46.0031 5.93541 45.1366ZM16.3165 49.9087C14.0842 50.2958 12.0666 50.0562 10.297 49.2015L14.0577 47.8481L16.4512 49.8694C16.4064 49.8825 16.3605 49.8956 16.3165 49.9087ZM17.9945 48.0417L15.601 46.0204L16.3057 42.0862C17.4447 43.6878 18.0186 45.6365 18.0108 47.9026C18.0052 47.9479 17.9999 47.9954 17.9945 48.0417ZM44.2825 58.944V62.2802H4.53054V58.944H44.2825Z" fill="#1BF39D"/>
<path d="M25.1574 17.884V13.2813C26.7446 13.3947 27.334 14.1202 27.8782 14.1202C28.5584 14.1202 28.8759 13.2587 28.8759 12.8279C28.8759 11.717 26.6993 11.2407 25.1576 11.1954V10.5833C25.1576 10.3111 24.8175 10.0618 24.4774 10.0618C24.0918 10.0618 23.8198 10.3111 23.8198 10.5833V11.2409C21.6658 11.4676 19.512 12.6013 19.512 15.4581C19.512 18.3604 21.7792 19.1766 23.8198 19.9021V25.2302C21.5072 25.0489 20.8949 23.4618 20.1468 23.4618C19.5799 23.4618 19.1038 24.2099 19.1038 24.7541C19.1038 25.865 21.0084 27.384 23.8198 27.4295H23.8197V28.1323C23.8197 28.4045 24.0918 28.6539 24.4772 28.6539C24.8173 28.6539 25.1574 28.4043 25.1574 28.1323V27.3614C27.6061 27.0213 29.2839 25.4794 29.2839 22.6907C29.2839 19.6071 27.1299 18.6094 25.1574 17.884ZM23.9558 17.4533C22.7542 16.9998 21.7792 16.5237 21.7792 15.2314C21.7792 14.0524 22.6861 13.4856 23.9558 13.3269V17.4533ZM25.0216 25.1849V20.4008C26.1324 20.877 27.0167 21.5117 27.0167 22.9402C27.0167 24.2327 26.246 24.9582 25.0216 25.1849Z" fill="#1BF39D"/>
</svg>
