<svg width="71" height="84" viewBox="0 0 71 84" fill="none" xmlns="http://www.w3.org/2000/svg">
<path d="M56.7228 2.03999C56.3099 0.560298 54.7771 -0.305828 53.2965 0.10402L36.6806 4.9509C35.8171 1.95642 35.7753 1.05111 34.494 0.340793C33.8552 -0.00801062 33.1054 -0.0929956 32.4048 0.10402L10.8445 6.3994C9.37179 6.81242 8.50758 8.33567 8.90854 9.81172L18.658 46.3444L3.90845 61.7625C-1.21451 66.7624 -1.31428 74.9686 3.68561 80.0915C8.68549 85.2145 16.8917 85.3143 22.0146 80.3144L24.0481 78.5595C26.2583 81.3704 29.526 83.1501 33.0863 83.4819C36.6467 83.8137 40.187 82.6685 42.8785 80.3144C52.3077 72.1945 55.7478 69.0329 62.7675 64.1442C68.7303 60.0305 71.4036 52.571 69.411 45.6062C58.032 5.66123 81.4308 89.0471 56.7228 2.03999V2.03999ZM14.5632 20.0487L36.3603 13.9204L37.2099 16.8453L15.3571 23.0014L14.5632 20.0487ZM40.6361 18.5723L57.252 13.9204L58.1016 16.8453L41.4857 21.5807L40.6361 18.5723ZM54.0486 2.77816L56.4721 11.1349L39.8562 15.8703C39.7587 15.55 37.3492 7.22114 37.4606 7.59719L54.0486 2.77816ZM33.1569 2.77816C34.3825 6.95651 31.6388 -2.48656 35.5803 11.1349L13.839 17.3606L11.6245 9.0039C34.0761 2.49961 33.0176 2.77816 33.1569 2.77816V2.77816ZM21.4157 45.6062L16.0814 25.6894L37.9759 19.4916L43.9092 39.9376C33.8951 45.2163 29.7028 55.0215 36.2489 64.8127C31.5273 68.3782 27.8922 71.6374 21.7082 76.8742C18.4557 70.7285 13.6547 65.5386 7.78039 61.8182L20.7472 48.2943C21.4189 47.5736 21.6716 46.5576 21.4157 45.6062ZM38.5191 63.1414C33.129 54.9936 36.4578 47.3472 44.717 42.6535L45.8034 46.3862C47.4242 52.204 45.1896 58.4106 40.2322 61.86C39.6612 62.2779 39.0901 62.6678 38.5191 63.1414V63.1414ZM12.5855 80.774C8.70884 80.5103 5.32505 78.0513 3.87686 74.4457C2.42866 70.84 3.17152 66.7237 5.78871 63.8517C11.6527 67.4257 16.4112 72.5554 19.5355 78.6709C17.556 80.2023 15.0819 80.951 12.5855 80.774V80.774ZM26.1233 76.7767C30.6777 72.9326 29.5914 73.7544 34.2015 69.9939C36.6803 72.5917 38.7724 75.5328 40.4133 78.7266C38.2566 80.3608 35.5387 81.0706 32.8584 80.6996C30.178 80.3287 27.7551 78.9074 26.1233 76.7489V76.7767ZM42.586 76.8881C40.9093 73.7417 38.8203 70.8329 36.3742 68.239C38.157 66.8462 39.9815 65.4534 41.8479 64.172C47.7783 60.0402 50.4396 52.6045 48.4775 45.648L42.2657 24.1852L58.8677 19.4916L64.8009 39.9515C54.8286 45.2023 50.5667 54.9936 57.1406 64.8266C51.6531 68.9354 49.5082 71.0245 42.586 76.8603V76.8881ZM61.1379 61.86C60.5529 62.2639 59.9819 62.6957 59.3969 63.1135C54.0626 55.0354 57.2938 47.3611 65.6087 42.6535L66.6951 46.3723C68.3298 52.1915 66.0994 58.4076 61.1379 61.86Z" fill="#1BF39D"/>
</svg>
