<svg width="32" height="32" viewBox="0 0 32 32" fill="none" xmlns="http://www.w3.org/2000/svg">
<path d="M29 7.94686C28.0437 8.35936 27.0031 8.65623 25.9312 8.77186C27.0441 8.11072 27.8775 7.06623 28.275 5.83436C27.2307 6.45557 26.0867 6.89118 24.8937 7.12186C24.3951 6.58881 23.7921 6.16417 23.1222 5.87438C22.4523 5.58459 21.7299 5.43587 21 5.43748C18.0469 5.43748 15.6719 7.83123 15.6719 10.7687C15.6719 11.1812 15.7219 11.5937 15.8031 11.9906C11.3812 11.7594 7.4375 9.64686 4.81562 6.41248C4.33789 7.22847 4.08754 8.15756 4.09062 9.10311C4.09062 10.9531 5.03125 12.5844 6.46562 13.5437C5.62032 13.5104 4.79482 13.2781 4.05625 12.8656V12.9312C4.05625 15.5219 5.8875 17.6687 8.32812 18.1625C7.86987 18.2815 7.39846 18.3424 6.925 18.3437C6.57812 18.3437 6.25 18.3094 5.91875 18.2625C6.59375 20.375 8.55937 21.9094 10.9 21.9594C9.06875 23.3937 6.775 24.2375 4.28437 24.2375C3.8375 24.2375 3.425 24.2219 2.99687 24.1719C5.35937 25.6875 8.1625 26.5625 11.1812 26.5625C20.9812 26.5625 26.3437 18.4437 26.3437 11.3969C26.3437 11.1656 26.3437 10.9344 26.3281 10.7031C27.3656 9.94373 28.275 9.00311 29 7.94686Z" fill="#1BF39D"/>
</svg>
